<svg xmlns="http://www.w3.org/2000/svg" width="127" height="70" fill="none" viewBox="0 0 127 70"><g filter="url(#filter0_d_1762_296)"><path fill="#fff" d="M35.6729 19H34.3411C32.8061 19 32 19.9404 32 21.7231V23.2769C32 25.0596 32.8061 26 34.3341 26H35.6659C37.1939 26 38 25.0596 38 23.2769V21.7231C38.007 19.9404 37.2009 19 35.6729 19Z"/><path fill="#fff" d="M43.6659 19H42.3341C40.8061 19 40 19.9404 40 21.7231V23.2769C40 25.0596 40.8061 26 42.3341 26H43.6659C45.1939 26 46 25.0596 46 23.2769V21.7231C46 19.9404 45.1939 19 43.6659 19Z"/><path fill="#fff" d="M43.6659 28H42.3341C40.8061 28 40 28.9404 40 30.7231V32.2769C40 34.0596 40.8061 35 42.3341 35H43.6659C45.1939 35 46 34.0596 46 32.2769V30.7231C46 28.9404 45.1939 28 43.6659 28Z"/><path fill="#fff" d="M35.6729 28H34.3411C32.8061 28 32 28.9393 32 30.72V32.2719C32 34.0607 32.8061 35 34.3341 35H35.6659C37.1939 35 38 34.0607 38 32.28V30.7281C38.007 28.9393 37.2009 28 35.6729 28Z"/><path fill="#fff" d="M58.1042 32.182C56.6296 32.182 55.4069 31.6967 54.4362 30.726C53.4656 29.746 52.9802 28.5373 52.9802 27.1C52.9802 25.6627 53.4656 24.4587 54.4362 23.488C55.4069 22.508 56.6296 22.018 58.1042 22.018C58.9909 22.018 59.8076 22.228 60.5542 22.648C61.3102 23.068 61.8982 23.6373 62.3182 24.356L60.9182 25.168C60.6569 24.6827 60.2742 24.3 59.7702 24.02C59.2756 23.7307 58.7202 23.586 58.1042 23.586C57.0589 23.586 56.2096 23.9173 55.5562 24.58C54.9122 25.2427 54.5902 26.0827 54.5902 27.1C54.5902 28.1173 54.9122 28.9573 55.5562 29.62C56.2096 30.2827 57.0589 30.614 58.1042 30.614C58.7202 30.614 59.2802 30.474 59.7842 30.194C60.2882 29.9047 60.6662 29.5173 60.9182 29.032L62.3182 29.83C61.9076 30.5487 61.3242 31.1227 60.5682 31.552C59.8216 31.972 59.0002 32.182 58.1042 32.182ZM66.8481 32.182C65.8214 32.182 64.9488 31.8273 64.2301 31.118C63.5114 30.4087 63.1521 29.536 63.1521 28.5C63.1521 27.464 63.5114 26.5913 64.2301 25.882C64.9488 25.1727 65.8214 24.818 66.8481 24.818C67.8841 24.818 68.7568 25.1727 69.4661 25.882C70.1848 26.5913 70.5441 27.464 70.5441 28.5C70.5441 29.536 70.1848 30.4087 69.4661 31.118C68.7568 31.8273 67.8841 32.182 66.8481 32.182ZM65.2941 30.082C65.7141 30.502 66.2321 30.712 66.8481 30.712C67.4641 30.712 67.9821 30.502 68.4021 30.082C68.8221 29.662 69.0321 29.1347 69.0321 28.5C69.0321 27.8653 68.8221 27.338 68.4021 26.918C67.9821 26.498 67.4641 26.288 66.8481 26.288C66.2321 26.288 65.7141 26.498 65.2941 26.918C64.8741 27.338 64.6641 27.8653 64.6641 28.5C64.6641 29.1347 64.8741 29.662 65.2941 30.082ZM75.5933 24.818C76.396 24.818 77.0446 25.0747 77.5393 25.588C78.034 26.1013 78.2813 26.806 78.2813 27.702V32H76.7693V27.856C76.7693 27.3333 76.6293 26.932 76.3493 26.652C76.0693 26.372 75.6866 26.232 75.2013 26.232C74.6693 26.232 74.24 26.4 73.9133 26.736C73.5866 27.0627 73.4233 27.5667 73.4233 28.248V32H71.9113V25H73.4233V25.896C73.8806 25.1773 74.604 24.818 75.5933 24.818ZM83.8153 26.456H82.0793V29.816C82.0793 30.1053 82.1447 30.3153 82.2753 30.446C82.406 30.5673 82.5973 30.6373 82.8493 30.656C83.1107 30.6653 83.4327 30.6607 83.8153 30.642V32C82.658 32.14 81.8273 32.042 81.3233 31.706C80.8193 31.3607 80.5673 30.7307 80.5673 29.816V26.456H79.2793V25H80.5673V23.488L82.0793 23.04V25H83.8153V26.456ZM86.0896 29.144C86.2016 29.676 86.4582 30.0867 86.8596 30.376C87.2609 30.656 87.7509 30.796 88.3296 30.796C89.1322 30.796 89.7342 30.5067 90.1356 29.928L91.3816 30.656C90.6909 31.6733 89.6689 32.182 88.3156 32.182C87.1769 32.182 86.2576 31.8367 85.5576 31.146C84.8576 30.446 84.5076 29.564 84.5076 28.5C84.5076 27.4547 84.8529 26.582 85.5436 25.882C86.2342 25.1727 87.1209 24.818 88.2036 24.818C89.2302 24.818 90.0702 25.1773 90.7236 25.896C91.3862 26.6147 91.7176 27.4873 91.7176 28.514C91.7176 28.6727 91.6989 28.8827 91.6616 29.144H86.0896ZM86.0756 27.912H90.1916C90.0889 27.3427 89.8509 26.9133 89.4776 26.624C89.1136 26.3347 88.6842 26.19 88.1896 26.19C87.6296 26.19 87.1629 26.344 86.7896 26.652C86.4162 26.96 86.1782 27.38 86.0756 27.912ZM96.73 24.818C97.5327 24.818 98.1813 25.0747 98.676 25.588C99.1707 26.1013 99.418 26.806 99.418 27.702V32H97.906V27.856C97.906 27.3333 97.766 26.932 97.486 26.652C97.206 26.372 96.8233 26.232 96.338 26.232C95.806 26.232 95.3767 26.4 95.05 26.736C94.7233 27.0627 94.56 27.5667 94.56 28.248V32H93.048V25H94.56V25.896C95.0173 25.1773 95.7407 24.818 96.73 24.818ZM104.952 26.456H103.216V29.816C103.216 30.1053 103.281 30.3153 103.412 30.446C103.543 30.5673 103.734 30.6373 103.986 30.656C104.247 30.6653 104.569 30.6607 104.952 30.642V32C103.795 32.14 102.964 32.042 102.46 31.706C101.956 31.3607 101.704 30.7307 101.704 29.816V26.456H100.416V25H101.704V23.488L103.216 23.04V25H104.952V26.456Z"/></g><defs><filter id="filter0_d_1762_296" width="126.952" height="70" x="0" y="0" color-interpolation-filters="sRGB" filterUnits="userSpaceOnUse"><feFlood flood-opacity="0" result="BackgroundImageFix"/><feColorMatrix in="SourceAlpha" result="hardAlpha" type="matrix" values="0 0 0 0 0 0 0 0 0 0 0 0 0 0 0 0 0 0 127 0"/><feOffset dx="-5" dy="8"/><feGaussianBlur stdDeviation="13.5"/><feComposite in2="hardAlpha" operator="out"/><feColorMatrix type="matrix" values="0 0 0 0 1 0 0 0 0 1 0 0 0 0 1 0 0 0 0.3 0"/><feBlend in2="BackgroundImageFix" mode="normal" result="effect1_dropShadow_1762_296"/><feBlend in="SourceGraphic" in2="effect1_dropShadow_1762_296" mode="normal" result="shape"/></filter></defs></svg>