<svg xmlns="http://www.w3.org/2000/svg" width="18" height="18" fill="none" viewBox="0 0 18 18"><path fill="#D9D9D9" d="M5.23684 8H3.76316C1.98 8 1 7.02 1 5.23684V3.76316C1 1.98 1.98 1 3.76316 1H5.23684C7.02 1 8 1.98 8 3.76316V5.23684C8 7.02 7.02 8 5.23684 8ZM3.76316 2.10526C2.59895 2.10526 2.10526 2.59895 2.10526 3.76316V5.23684C2.10526 6.40105 2.59895 6.89474 3.76316 6.89474H5.23684C6.40105 6.89474 6.89474 6.40105 6.89474 5.23684V3.76316C6.89474 2.59895 6.40105 2.10526 5.23684 2.10526H3.76316Z"/><path fill="#D9D9D9" d="M14.2368 8H12.7632C10.98 8 10 7.02 10 5.23684V3.76316C10 1.98 10.98 1 12.7632 1H14.2368C16.02 1 17 1.98 17 3.76316V5.23684C17 7.02 16.02 8 14.2368 8ZM12.7632 2.10526C11.5989 2.10526 11.1053 2.59895 11.1053 3.76316V5.23684C11.1053 6.40105 11.5989 6.89474 12.7632 6.89474H14.2368C15.4011 6.89474 15.8947 6.40105 15.8947 5.23684V3.76316C15.8947 2.59895 15.4011 2.10526 14.2368 2.10526H12.7632Z"/><path fill="#D9D9D9" d="M14.2368 17H12.7632C10.98 17 10 16.02 10 14.2368V12.7632C10 10.98 10.98 10 12.7632 10H14.2368C16.02 10 17 10.98 17 12.7632V14.2368C17 16.02 16.02 17 14.2368 17ZM12.7632 11.1053C11.5989 11.1053 11.1053 11.5989 11.1053 12.7632V14.2368C11.1053 15.4011 11.5989 15.8947 12.7632 15.8947H14.2368C15.4011 15.8947 15.8947 15.4011 15.8947 14.2368V12.7632C15.8947 11.5989 15.4011 11.1053 14.2368 11.1053H12.7632Z"/><path fill="#D9D9D9" d="M5.23684 17H3.76316C1.98 17 1 16.02 1 14.2368V12.7632C1 10.98 1.98 10 3.76316 10H5.23684C7.02 10 8 10.98 8 12.7632V14.2368C8 16.02 7.02 17 5.23684 17ZM3.76316 11.1053C2.59895 11.1053 2.10526 11.5989 2.10526 12.7632V14.2368C2.10526 15.4011 2.59895 15.8947 3.76316 15.8947H5.23684C6.40105 15.8947 6.89474 15.4011 6.89474 14.2368V12.7632C6.89474 11.5989 6.40105 11.1053 5.23684 11.1053H3.76316Z"/></svg>