<svg width="99" height="69" viewBox="0 0 99 69" fill="none" xmlns="http://www.w3.org/2000/svg">
<g filter="url(#filter0_d_1762_4547)">
<path d="M39.5 19C35.3675 19 32 22.3675 32 26.5C32 30.6325 35.3675 34 39.5 34C43.6325 34 47 30.6325 47 26.5C47 22.3675 43.6325 19 39.5 19ZM38.9375 23.5C38.9375 23.1925 39.1925 22.9375 39.5 22.9375C39.8075 22.9375 40.0625 23.1925 40.0625 23.5V27.25C40.0625 27.5575 39.8075 27.8125 39.5 27.8125C39.1925 27.8125 38.9375 27.5575 38.9375 27.25V23.5ZM40.19 29.785C40.1525 29.8825 40.1 29.9575 40.0325 30.0325C39.9575 30.1 39.875 30.1525 39.785 30.19C39.695 30.2275 39.5975 30.25 39.5 30.25C39.4025 30.25 39.305 30.2275 39.215 30.19C39.125 30.1525 39.0425 30.1 38.9675 30.0325C38.9 29.9575 38.8475 29.8825 38.81 29.785C38.7725 29.695 38.75 29.5975 38.75 29.5C38.75 29.4025 38.7725 29.305 38.81 29.215C38.8475 29.125 38.9 29.0425 38.9675 28.9675C39.0425 28.9 39.125 28.8475 39.215 28.81C39.395 28.735 39.605 28.735 39.785 28.81C39.875 28.8475 39.9575 28.9 40.0325 28.9675C40.1 29.0425 40.1525 29.125 40.19 29.215C40.2275 29.305 40.25 29.4025 40.25 29.5C40.25 29.5975 40.2275 29.695 40.19 29.785Z" fill="white"/>
<path d="M53.4009 22.2H55.0109V32H53.4009V22.2ZM60.5533 24.818C61.3559 24.818 62.0046 25.0747 62.4993 25.588C62.9939 26.1013 63.2413 26.806 63.2413 27.702V32H61.7293V27.856C61.7293 27.3333 61.5893 26.932 61.3093 26.652C61.0293 26.372 60.6466 26.232 60.1613 26.232C59.6293 26.232 59.1999 26.4 58.8733 26.736C58.5466 27.0627 58.3833 27.5667 58.3833 28.248V32H56.8713V25H58.3833V25.896C58.8406 25.1773 59.5639 24.818 60.5533 24.818ZM68.5373 23.474C67.436 23.3713 66.8853 23.8333 66.8853 24.86V25H68.5373V26.456H66.8853V32H65.3733V26.456H64.3093V25H65.3733V24.86C65.3733 23.8987 65.6393 23.1707 66.1713 22.676C66.7126 22.172 67.5013 21.9527 68.5373 22.018V23.474ZM72.3979 32.182C71.3712 32.182 70.4986 31.8273 69.7799 31.118C69.0612 30.4087 68.7019 29.536 68.7019 28.5C68.7019 27.464 69.0612 26.5913 69.7799 25.882C70.4986 25.1727 71.3712 24.818 72.3979 24.818C73.4339 24.818 74.3066 25.1727 75.0159 25.882C75.7346 26.5913 76.0939 27.464 76.0939 28.5C76.0939 29.536 75.7346 30.4087 75.0159 31.118C74.3066 31.8273 73.4339 32.182 72.3979 32.182ZM70.8439 30.082C71.2639 30.502 71.7819 30.712 72.3979 30.712C73.0139 30.712 73.5319 30.502 73.9519 30.082C74.3719 29.662 74.5819 29.1347 74.5819 28.5C74.5819 27.8653 74.3719 27.338 73.9519 26.918C73.5319 26.498 73.0139 26.288 72.3979 26.288C71.7819 26.288 71.2639 26.498 70.8439 26.918C70.4239 27.338 70.2139 27.8653 70.2139 28.5C70.2139 29.1347 70.4239 29.662 70.8439 30.082Z" fill="white"/>
</g>
<defs>
<filter id="filter0_d_1762_4547" x="0" y="0" width="98.0938" height="69" filterUnits="userSpaceOnUse" color-interpolation-filters="sRGB">
<feFlood flood-opacity="0" result="BackgroundImageFix"/>
<feColorMatrix in="SourceAlpha" type="matrix" values="0 0 0 0 0 0 0 0 0 0 0 0 0 0 0 0 0 0 127 0" result="hardAlpha"/>
<feOffset dx="-5" dy="8"/>
<feGaussianBlur stdDeviation="13.5"/>
<feComposite in2="hardAlpha" operator="out"/>
<feColorMatrix type="matrix" values="0 0 0 0 1 0 0 0 0 1 0 0 0 0 1 0 0 0 0.3 0"/>
<feBlend mode="normal" in2="BackgroundImageFix" result="effect1_dropShadow_1762_4547"/>
<feBlend mode="normal" in="SourceGraphic" in2="effect1_dropShadow_1762_4547" result="shape"/>
</filter>
</defs>
</svg>
