<svg xmlns="http://www.w3.org/2000/svg" width="18" height="18" fill="none" viewBox="0 0 18 18"><path fill="#D9D9D9" d="M13.4415 16C13.215 16 12.9885 15.9418 12.7839 15.818L9.85386 14.0859C9.54698 14.0786 9.24008 14.0568 8.94781 14.0131C8.75052 13.984 8.58246 13.853 8.50939 13.6637C8.43632 13.4745 8.47286 13.2707 8.60438 13.1179C9.08664 12.5575 9.33507 11.8879 9.33507 11.1747C9.33507 9.41338 7.7787 7.9796 5.8643 7.9796C5.14822 7.9796 4.46137 8.17614 3.88413 8.55459C3.72338 8.65649 3.52609 8.67103 3.35073 8.59098C3.18267 8.51092 3.05846 8.35078 3.03654 8.16155C3.01462 7.95777 3 7.754 3 7.54294C3 3.93304 6.14196 1 10 1C13.858 1 17 3.93304 17 7.54294C17 9.52256 16.0793 11.3421 14.4572 12.5866L14.7056 14.5663C14.7641 15.0612 14.5449 15.527 14.1284 15.7962C13.9238 15.9272 13.6827 16 13.4415 16ZM9.99269 12.9869C10.095 12.9796 10.1973 13.0088 10.285 13.067L13.3466 14.8792C13.4269 14.9301 13.4927 14.9083 13.5365 14.8792C13.5731 14.8574 13.6315 14.7991 13.6169 14.6972L13.3319 12.3974C13.31 12.1936 13.3977 11.9971 13.5585 11.8807C15.0491 10.8399 15.904 9.25326 15.904 7.52837C15.904 4.52254 13.2589 2.07713 10 2.07713C6.86535 2.07713 4.29332 4.34791 4.10334 7.20089C4.65135 6.98983 5.24322 6.87337 5.857 6.87337C8.37787 6.87337 10.4238 8.79474 10.4238 11.1601C10.4311 11.8006 10.2777 12.4192 9.99269 12.9869Z"/><path fill="#D9D9D9" d="M3.39041 17C3.20321 17 3.0232 16.9478 2.8576 16.836C2.5336 16.6197 2.36081 16.2468 2.40401 15.8516L2.54801 14.7032C1.57601 13.8829 1 12.6674 1 11.3922C1 9.93808 1.73441 8.58089 2.96561 7.76806C3.70721 7.26843 4.5856 7 5.5 7C7.984 7 10 8.96865 10 11.3922C10 12.3766 9.6544 13.346 9.0208 14.1141C8.2072 15.1357 6.99041 15.7323 5.65121 15.777L3.8944 16.8583C3.736 16.9553 3.56321 17 3.39041 17ZM5.4928 8.11857C4.7872 8.11857 4.1104 8.3199 3.5416 8.70767C2.62 9.31915 2.0728 10.3184 2.0728 11.3922C2.0728 12.4288 2.56241 13.3758 3.42641 13.9873C3.59201 14.1066 3.6784 14.308 3.6568 14.5168L3.4984 15.7919L5.2192 14.733C5.3056 14.6808 5.3992 14.651 5.4928 14.651C6.5512 14.651 7.55201 14.1812 8.18561 13.3833C8.66081 12.8017 8.9128 12.1156 8.9128 11.3848C8.9128 9.58758 7.3792 8.11857 5.4928 8.11857Z"/></svg>