<svg width="126" height="69" viewBox="0 0 126 69" fill="none" xmlns="http://www.w3.org/2000/svg">
<g filter="url(#filter0_d_1762_6499)">
<path d="M43.3678 29.8612L43.6586 32.1756C43.7332 32.7834 43.0695 33.2082 42.5401 32.8933L39.9601 31.3846C39.7811 31.2821 39.7364 31.0623 39.8333 30.8866C40.2061 30.2128 40.4075 29.4511 40.4075 28.6894C40.4075 26.0089 38.0661 23.8264 35.1878 23.8264C34.5987 23.8264 34.0245 23.9143 33.4877 24.0901C33.2118 24.1779 32.9433 23.9289 33.0104 23.6506C33.689 20.9848 36.2988 19 39.4157 19C43.0546 19 46 21.7025 46 25.0348C46 27.0123 44.9635 28.7627 43.3678 29.8612Z" fill="white"/>
<path d="M40 28.8839C40 29.783 39.68 30.6142 39.1418 31.2716C38.4218 32.1783 37.28 32.7602 36 32.7602L34.1018 33.9314C33.7818 34.1354 33.3745 33.8558 33.4182 33.4704L33.6 31.9819C32.6255 31.2792 32 30.1533 32 28.8839C32 27.554 32.6836 26.3828 33.7309 25.6876C34.3782 25.2494 35.1564 25 36 25C38.2109 25 40 26.7379 40 28.8839Z" fill="white"/>
<path d="M58.8697 32L56.7977 28.43H54.8937V32H53.2837V22.2H57.2037C58.081 22.2 58.823 22.508 59.4297 23.124C60.0457 23.7307 60.3537 24.4727 60.3537 25.35C60.3537 25.9753 60.1717 26.5493 59.8077 27.072C59.453 27.5853 58.9864 27.9587 58.4077 28.192L60.6337 32H58.8697ZM54.8937 23.712V26.988H57.2037C57.633 26.988 57.997 26.8293 58.2957 26.512C58.5944 26.1947 58.7437 25.8073 58.7437 25.35C58.7437 24.8927 58.5944 24.5053 58.2957 24.188C57.997 23.8707 57.633 23.712 57.2037 23.712H54.8937ZM62.5925 29.144C62.7045 29.676 62.9612 30.0867 63.3625 30.376C63.7638 30.656 64.2538 30.796 64.8325 30.796C65.6352 30.796 66.2372 30.5067 66.6385 29.928L67.8845 30.656C67.1938 31.6733 66.1718 32.182 64.8185 32.182C63.6798 32.182 62.7605 31.8367 62.0605 31.146C61.3605 30.446 61.0105 29.564 61.0105 28.5C61.0105 27.4547 61.3558 26.582 62.0465 25.882C62.7372 25.1727 63.6238 24.818 64.7065 24.818C65.7332 24.818 66.5732 25.1773 67.2265 25.896C67.8892 26.6147 68.2205 27.4873 68.2205 28.514C68.2205 28.6727 68.2018 28.8827 68.1645 29.144H62.5925ZM62.5785 27.912H66.6945C66.5918 27.3427 66.3538 26.9133 65.9805 26.624C65.6165 26.3347 65.1872 26.19 64.6925 26.19C64.1325 26.19 63.6658 26.344 63.2925 26.652C62.9192 26.96 62.6812 27.38 62.5785 27.912ZM74.0235 25H75.6755L72.9455 32H71.1955L68.4655 25H70.1175L72.0775 30.32L74.0235 25ZM78.061 23.67C77.8743 23.8567 77.6503 23.95 77.389 23.95C77.1276 23.95 76.899 23.8567 76.703 23.67C76.5163 23.474 76.423 23.2453 76.423 22.984C76.423 22.7227 76.5163 22.4987 76.703 22.312C76.8896 22.116 77.1183 22.018 77.389 22.018C77.6596 22.018 77.8883 22.116 78.075 22.312C78.2616 22.4987 78.355 22.7227 78.355 22.984C78.355 23.2453 78.257 23.474 78.061 23.67ZM76.633 32V25H78.145V32H76.633ZM81.0906 29.144C81.2026 29.676 81.4592 30.0867 81.8606 30.376C82.2619 30.656 82.7519 30.796 83.3306 30.796C84.1332 30.796 84.7352 30.5067 85.1366 29.928L86.3826 30.656C85.6919 31.6733 84.6699 32.182 83.3166 32.182C82.1779 32.182 81.2586 31.8367 80.5586 31.146C79.8586 30.446 79.5086 29.564 79.5086 28.5C79.5086 27.4547 79.8539 26.582 80.5446 25.882C81.2352 25.1727 82.1219 24.818 83.2046 24.818C84.2312 24.818 85.0712 25.1773 85.7246 25.896C86.3872 26.6147 86.7186 27.4873 86.7186 28.514C86.7186 28.6727 86.6999 28.8827 86.6626 29.144H81.0906ZM81.0766 27.912H85.1926C85.0899 27.3427 84.8519 26.9133 84.4786 26.624C84.1146 26.3347 83.6852 26.19 83.1906 26.19C82.6306 26.19 82.1639 26.344 81.7906 26.652C81.4172 26.96 81.1792 27.38 81.0766 27.912ZM95.8396 25H97.4356L95.2376 32H93.7536L92.2976 27.282L90.8276 32H89.3436L87.1456 25H88.7416L90.0996 29.83L91.5696 25H93.0116L94.4676 29.83L95.8396 25ZM99.4832 26.932C99.4832 27.1653 99.6092 27.352 99.8612 27.492C100.122 27.6227 100.435 27.7393 100.799 27.842C101.172 27.9353 101.546 28.0473 101.919 28.178C102.292 28.3087 102.605 28.5327 102.857 28.85C103.118 29.158 103.249 29.55 103.249 30.026C103.249 30.698 102.988 31.2253 102.465 31.608C101.952 31.9907 101.303 32.182 100.519 32.182C99.8285 32.182 99.2358 32.0373 98.7412 31.748C98.2465 31.4587 97.8872 31.0573 97.6632 30.544L98.9652 29.788C99.2078 30.46 99.7258 30.796 100.519 30.796C101.312 30.796 101.709 30.5347 101.709 30.012C101.709 29.788 101.578 29.606 101.317 29.466C101.065 29.326 100.752 29.2093 100.379 29.116C100.015 29.0133 99.6465 28.8967 99.2732 28.766C98.8998 28.6353 98.5825 28.4207 98.3212 28.122C98.0692 27.814 97.9432 27.4267 97.9432 26.96C97.9432 26.316 98.1858 25.798 98.6712 25.406C99.1658 25.014 99.7772 24.818 100.505 24.818C101.084 24.818 101.597 24.9487 102.045 25.21C102.502 25.462 102.852 25.8167 103.095 26.274L101.821 26.988C101.578 26.456 101.14 26.19 100.505 26.19C100.216 26.19 99.9732 26.2553 99.7772 26.386C99.5812 26.5073 99.4832 26.6893 99.4832 26.932Z" fill="white"/>
</g>
<defs>
<filter id="filter0_d_1762_6499" x="0" y="0" width="125.249" height="69" filterUnits="userSpaceOnUse" color-interpolation-filters="sRGB">
<feFlood flood-opacity="0" result="BackgroundImageFix"/>
<feColorMatrix in="SourceAlpha" type="matrix" values="0 0 0 0 0 0 0 0 0 0 0 0 0 0 0 0 0 0 127 0" result="hardAlpha"/>
<feOffset dx="-5" dy="8"/>
<feGaussianBlur stdDeviation="13.5"/>
<feComposite in2="hardAlpha" operator="out"/>
<feColorMatrix type="matrix" values="0 0 0 0 1 0 0 0 0 1 0 0 0 0 1 0 0 0 0.3 0"/>
<feBlend mode="normal" in2="BackgroundImageFix" result="effect1_dropShadow_1762_6499"/>
<feBlend mode="normal" in="SourceGraphic" in2="effect1_dropShadow_1762_6499" result="shape"/>
</filter>
</defs>
</svg>
