<svg width="130" height="69" viewBox="0 0 130 69" fill="none" xmlns="http://www.w3.org/2000/svg">
<g filter="url(#filter0_d_1762_5192)">
<path d="M46.2371 19.7628C45.5844 19.1102 44.6616 18.8552 43.7688 19.0802L36.4166 20.918C35.1787 21.2255 34.2259 22.1857 33.9183 23.4159L32.0802 30.7745C31.8552 31.6671 32.1102 32.5898 32.7629 33.2424C33.2581 33.73 33.9108 34 34.586 34C34.7961 34 35.0136 33.9775 35.2237 33.9175L42.5834 32.0797C43.8138 31.7722 44.7741 30.8195 45.0817 29.5818L46.9198 22.2232C47.1448 21.3306 46.8898 20.4079 46.2371 19.7628ZM39.5 29.4093C37.8945 29.4093 36.5891 28.1041 36.5891 26.4988C36.5891 24.8936 37.8945 23.5884 39.5 23.5884C41.1055 23.5884 42.4109 24.8936 42.4109 26.4988C42.4109 28.1041 41.1055 29.4093 39.5 29.4093Z" fill="white"/>
<path d="M58.4246 32.182C57.482 32.182 56.6793 31.9673 56.0166 31.538C55.3633 31.1087 54.906 30.5207 54.6446 29.774L56.0306 28.962C56.4226 30.0633 57.2346 30.614 58.4666 30.614C59.0733 30.614 59.526 30.4973 59.8246 30.264C60.1326 30.0213 60.2866 29.7087 60.2866 29.326C60.2866 28.9247 60.1233 28.6213 59.7966 28.416C59.47 28.2013 58.8913 27.968 58.0606 27.716C57.594 27.576 57.216 27.4453 56.9266 27.324C56.6373 27.2027 56.3293 27.0347 56.0026 26.82C55.6853 26.596 55.4473 26.3207 55.2886 25.994C55.13 25.6673 55.0506 25.2847 55.0506 24.846C55.0506 23.978 55.3586 23.292 55.9746 22.788C56.5906 22.2747 57.3326 22.018 58.2006 22.018C58.9846 22.018 59.6706 22.2093 60.2586 22.592C60.8466 22.9747 61.2993 23.502 61.6166 24.174L60.2586 24.958C59.848 24.0433 59.162 23.586 58.2006 23.586C57.734 23.586 57.3606 23.698 57.0806 23.922C56.8006 24.1367 56.6606 24.4307 56.6606 24.804C56.6606 25.168 56.8006 25.4573 57.0806 25.672C57.37 25.8773 57.888 26.0967 58.6346 26.33C59.008 26.4513 59.2786 26.5447 59.4466 26.61C59.624 26.666 59.8666 26.7593 60.1746 26.89C60.492 27.0207 60.73 27.1513 60.8886 27.282C61.0473 27.4127 61.2153 27.576 61.3926 27.772C61.5793 27.968 61.71 28.192 61.7846 28.444C61.8593 28.696 61.8966 28.9807 61.8966 29.298C61.8966 30.1847 61.5746 30.8893 60.9306 31.412C60.296 31.9253 59.4606 32.182 58.4246 32.182ZM64.5671 29.144C64.6791 29.676 64.9358 30.0867 65.3371 30.376C65.7385 30.656 66.2285 30.796 66.8071 30.796C67.6098 30.796 68.2118 30.5067 68.6131 29.928L69.8591 30.656C69.1685 31.6733 68.1465 32.182 66.7931 32.182C65.6545 32.182 64.7351 31.8367 64.0351 31.146C63.3351 30.446 62.9851 29.564 62.9851 28.5C62.9851 27.4547 63.3305 26.582 64.0211 25.882C64.7118 25.1727 65.5985 24.818 66.6811 24.818C67.7078 24.818 68.5478 25.1773 69.2011 25.896C69.8638 26.6147 70.1951 27.4873 70.1951 28.514C70.1951 28.6727 70.1765 28.8827 70.1391 29.144H64.5671ZM64.5531 27.912H68.6691C68.5665 27.3427 68.3285 26.9133 67.9551 26.624C67.5911 26.3347 67.1618 26.19 66.6671 26.19C66.1071 26.19 65.6405 26.344 65.2671 26.652C64.8938 26.96 64.6558 27.38 64.5531 27.912ZM73.0376 26.176C73.4202 25.308 74.1389 24.874 75.1936 24.874V26.512C74.6149 26.4747 74.1109 26.6147 73.6816 26.932C73.2522 27.24 73.0376 27.7533 73.0376 28.472V32H71.5256V25H73.0376V26.176ZM81.0567 25H82.7087L79.9787 32H78.2287L75.4987 25H77.1507L79.1107 30.32L81.0567 25ZM85.0942 23.67C84.9075 23.8567 84.6835 23.95 84.4222 23.95C84.1608 23.95 83.9322 23.8567 83.7362 23.67C83.5495 23.474 83.4562 23.2453 83.4562 22.984C83.4562 22.7227 83.5495 22.4987 83.7362 22.312C83.9228 22.116 84.1515 22.018 84.4222 22.018C84.6928 22.018 84.9215 22.116 85.1082 22.312C85.2948 22.4987 85.3882 22.7227 85.3882 22.984C85.3882 23.2453 85.2902 23.474 85.0942 23.67ZM83.6662 32V25H85.1782V32H83.6662ZM90.2378 32.182C89.1831 32.182 88.3011 31.8273 87.5918 31.118C86.8918 30.4087 86.5418 29.536 86.5418 28.5C86.5418 27.4547 86.8918 26.582 87.5918 25.882C88.3011 25.1727 89.1831 24.818 90.2378 24.818C90.9191 24.818 91.5398 24.9813 92.0998 25.308C92.6598 25.6347 93.0798 26.0733 93.3598 26.624L92.0578 27.38C91.8991 27.044 91.6564 26.7827 91.3298 26.596C91.0124 26.4 90.6438 26.302 90.2238 26.302C89.6078 26.302 89.0898 26.512 88.6698 26.932C88.2591 27.352 88.0538 27.8747 88.0538 28.5C88.0538 29.1253 88.2591 29.648 88.6698 30.068C89.0898 30.488 89.6078 30.698 90.2238 30.698C90.6344 30.698 91.0031 30.6 91.3298 30.404C91.6658 30.208 91.9178 29.9467 92.0858 29.62L93.3878 30.362C93.0891 30.922 92.6598 31.3653 92.0998 31.692C91.5398 32.0187 90.9191 32.182 90.2378 32.182ZM95.5613 29.144C95.6733 29.676 95.9299 30.0867 96.3313 30.376C96.7326 30.656 97.2226 30.796 97.8013 30.796C98.6039 30.796 99.2059 30.5067 99.6073 29.928L100.853 30.656C100.163 31.6733 99.1406 32.182 97.7873 32.182C96.6486 32.182 95.7293 31.8367 95.0293 31.146C94.3293 30.446 93.9793 29.564 93.9793 28.5C93.9793 27.4547 94.3246 26.582 95.0153 25.882C95.7059 25.1727 96.5926 24.818 97.6753 24.818C98.7019 24.818 99.5419 25.1773 100.195 25.896C100.858 26.6147 101.189 27.4873 101.189 28.514C101.189 28.6727 101.171 28.8827 101.133 29.144H95.5613ZM95.5473 27.912H99.6633C99.5606 27.3427 99.3226 26.9133 98.9493 26.624C98.5853 26.3347 98.1559 26.19 97.6613 26.19C97.1013 26.19 96.6346 26.344 96.2613 26.652C95.8879 26.96 95.6499 27.38 95.5473 27.912ZM103.604 26.932C103.604 27.1653 103.73 27.352 103.982 27.492C104.244 27.6227 104.556 27.7393 104.92 27.842C105.294 27.9353 105.667 28.0473 106.04 28.178C106.414 28.3087 106.726 28.5327 106.978 28.85C107.24 29.158 107.37 29.55 107.37 30.026C107.37 30.698 107.109 31.2253 106.586 31.608C106.073 31.9907 105.424 32.182 104.64 32.182C103.95 32.182 103.357 32.0373 102.862 31.748C102.368 31.4587 102.008 31.0573 101.784 30.544L103.086 29.788C103.329 30.46 103.847 30.796 104.64 30.796C105.434 30.796 105.83 30.5347 105.83 30.012C105.83 29.788 105.7 29.606 105.438 29.466C105.186 29.326 104.874 29.2093 104.5 29.116C104.136 29.0133 103.768 28.8967 103.394 28.766C103.021 28.6353 102.704 28.4207 102.442 28.122C102.19 27.814 102.064 27.4267 102.064 26.96C102.064 26.316 102.307 25.798 102.792 25.406C103.287 25.014 103.898 24.818 104.626 24.818C105.205 24.818 105.718 24.9487 106.166 25.21C106.624 25.462 106.974 25.8167 107.216 26.274L105.942 26.988C105.7 26.456 105.261 26.19 104.626 26.19C104.337 26.19 104.094 26.2553 103.898 26.386C103.702 26.5073 103.604 26.6893 103.604 26.932Z" fill="white"/>
</g>
<defs>
<filter id="filter0_d_1762_5192" x="0" y="0" width="129.37" height="69" filterUnits="userSpaceOnUse" color-interpolation-filters="sRGB">
<feFlood flood-opacity="0" result="BackgroundImageFix"/>
<feColorMatrix in="SourceAlpha" type="matrix" values="0 0 0 0 0 0 0 0 0 0 0 0 0 0 0 0 0 0 127 0" result="hardAlpha"/>
<feOffset dx="-5" dy="8"/>
<feGaussianBlur stdDeviation="13.5"/>
<feComposite in2="hardAlpha" operator="out"/>
<feColorMatrix type="matrix" values="0 0 0 0 1 0 0 0 0 1 0 0 0 0 1 0 0 0 0.3 0"/>
<feBlend mode="normal" in2="BackgroundImageFix" result="effect1_dropShadow_1762_5192"/>
<feBlend mode="normal" in="SourceGraphic" in2="effect1_dropShadow_1762_5192" result="shape"/>
</filter>
</defs>
</svg>
