<svg width="18" height="18" viewBox="0 0 18 18" fill="none" xmlns="http://www.w3.org/2000/svg">
<path d="M3.76115 17C2.9546 17 2.26645 16.741 1.76328 16.2378C1.04553 15.52 0.823542 14.4248 1.14172 13.152L2.9768 5.80375C3.29498 4.53095 4.5381 3.29514 5.80341 2.97694L13.1511 1.14173C14.4238 0.823529 15.519 1.04553 16.2367 1.76333C16.9545 2.48114 17.1765 3.57634 16.8583 4.84915L15.0232 12.1974C14.705 13.4702 13.4619 14.706 12.1966 15.0242L4.84888 16.8594C4.4715 16.9482 4.10892 17 3.76115 17ZM13.4323 2.20734L6.08459 4.04994C5.21885 4.26454 4.27911 5.20435 4.05713 6.07015L2.22205 13.4184C2.00006 14.299 2.11846 15.0168 2.54763 15.4534C2.9768 15.8826 3.70195 16.001 4.58249 15.779L11.9302 13.9438C12.7959 13.7292 13.7357 12.782 13.9503 11.9236L15.7853 4.57535C16.0073 3.69474 15.8889 2.97694 15.4598 2.54034C15.0306 2.10373 14.3128 1.99273 13.4323 2.20734Z" fill="#D9D9D9"/>
<path d="M9 12C7.34824 12 6 10.6518 6 9C6 7.34824 7.34824 6 9 6C10.6518 6 12 7.34824 12 9C12 10.6518 10.6518 12 9 12ZM9 7.05882C7.92706 7.05882 7.05882 7.92706 7.05882 9C7.05882 10.0729 7.92706 10.9412 9 10.9412C10.0729 10.9412 10.9412 10.0729 10.9412 9C10.9412 7.92706 10.0729 7.05882 9 7.05882Z" fill="#D9D9D9"/>
</svg>
