<svg xmlns="http://www.w3.org/2000/svg" width="24" height="24" fill="none" viewBox="0 0 24 24"><path fill="#fff" d="M16.2105 13H7.78947C7.35789 13 7 12.5467 7 12C7 11.4533 7.35789 11 7.78947 11H16.2105C16.6421 11 17 11.4533 17 12C17 12.5467 16.6421 13 16.2105 13Z"/><path fill="#fff" d="M12 17C11.4533 17 11 16.6421 11 16.2105V7.78947C11 7.35789 11.4533 7 12 7C12.5467 7 13 7.35789 13 7.78947V16.2105C13 16.6421 12.5467 17 12 17Z"/><path fill="#fff" d="M15.0698 23H8.93023C3.37395 23 1 20.626 1 15.0698V8.93023C1 3.37395 3.37395 1 8.93023 1H15.0698C20.626 1 23 3.37395 23 8.93023V15.0698C23 20.626 20.626 23 15.0698 23ZM8.93023 2.53488C4.21302 2.53488 2.53488 4.21302 2.53488 8.93023V15.0698C2.53488 19.787 4.21302 21.4651 8.93023 21.4651H15.0698C19.787 21.4651 21.4651 19.787 21.4651 15.0698V8.93023C21.4651 4.21302 19.787 2.53488 15.0698 2.53488H8.93023Z"/></svg>