<svg width="22" height="22" viewBox="0 0 22 22" fill="none" xmlns="http://www.w3.org/2000/svg">
    <path d="M7.55818 4.51561C7.55817 4.51564 7.55785 4.51539 7.55723 4.51479L7.55818 4.51561ZM7.44182 4.51561C7.44182 4.51559 7.44214 4.51528 7.44279 4.51478L7.44182 4.51561ZM7.55818 1.48439C7.55818 1.48441 7.55787 1.48471 7.55723 1.48521L7.55818 1.48439ZM7.44182 1.48439C7.44183 1.48436 7.44215 1.48461 7.44277 1.48521L7.44182 1.48439Z" fill="white" stroke="#D9D9D9"/>
    <path d="M14.5582 4.51561C14.5582 4.51564 14.5579 4.51539 14.5572 4.51479L14.5582 4.51561ZM14.4418 4.51561C14.4418 4.51559 14.4421 4.51528 14.4428 4.51478L14.4418 4.51561ZM14.5582 1.48439C14.5582 1.48441 14.5579 1.48471 14.5572 1.48521L14.5582 1.48439ZM14.4418 1.48439C14.4418 1.48436 14.4421 1.48461 14.4428 1.48521L14.4418 1.48439Z" fill="white" stroke="#D9D9D9"/>
    <path d="M7.81276 12.4584L7.81284 12.4583L7.79992 12.4533C7.74748 12.4331 7.70201 12.4053 7.64084 12.3521C7.54896 12.2488 7.5 12.1238 7.5 11.9972C7.5 11.9425 7.51295 11.8773 7.54173 11.808C7.56643 11.7486 7.60033 11.6923 7.64557 11.6383C7.70437 11.5877 7.74884 11.5609 7.79992 11.5412L7.79999 11.5413L7.81276 11.536C7.98993 11.462 8.21895 11.5053 8.35135 11.6338C8.44649 11.7371 8.5 11.8745 8.5 11.9972C8.5 12.0141 8.49669 12.0446 8.4862 12.1188C8.48472 12.1258 8.48121 12.1378 8.47254 12.1552L8.45671 12.1869L8.44553 12.2206C8.44131 12.2332 8.43241 12.2537 8.41362 12.282L8.40704 12.2919L8.40489 12.2954C8.40262 12.2983 8.39878 12.3031 8.39235 12.3107C8.38669 12.3173 8.38201 12.3227 8.37601 12.3297C8.37219 12.3341 8.36783 12.3391 8.36234 12.3455C8.35764 12.351 8.35238 12.3571 8.34675 12.3638C8.24559 12.4514 8.11584 12.5 8 12.5C7.94604 12.5 7.8815 12.4872 7.81276 12.4584Z" fill="white" stroke="#D9D9D9"/>
    <path d="M10.8124 12.4585L10.8125 12.4583L10.7996 12.4533C10.7471 12.4331 10.7016 12.4055 10.6404 12.3523C10.5487 12.2494 10.5 12.1251 10.5 11.9994C10.5 11.9452 10.5129 11.8804 10.5416 11.8115C10.5662 11.7523 10.6 11.6963 10.6452 11.6425C10.7039 11.592 10.7484 11.5653 10.7996 11.5456L10.8115 11.541L10.8232 11.5358C10.9857 11.4635 11.2124 11.5027 11.3517 11.6379C11.4467 11.7409 11.5 11.8776 11.5 11.9994C11.5 12.0161 11.4967 12.0464 11.4862 12.1204C11.4848 12.1272 11.4813 12.139 11.4727 12.1562L11.4569 12.1879L11.4456 12.2216C11.4415 12.2341 11.4326 12.2544 11.4139 12.2825L11.4073 12.2924L11.4052 12.296C11.4029 12.2988 11.3991 12.3035 11.3927 12.3111C11.3871 12.3177 11.3824 12.3231 11.3764 12.33C11.3726 12.3344 11.3682 12.3395 11.3627 12.3458C11.358 12.3513 11.3528 12.3574 11.3471 12.364C11.246 12.4514 11.1162 12.5 11 12.5C10.9459 12.5 10.8812 12.4872 10.8124 12.4585Z" fill="white" stroke="#D9D9D9"/>
    <path d="M13.8124 12.4585L13.8125 12.4583L13.7996 12.4533C13.7506 12.4345 13.7078 12.4092 13.6527 12.3628L13.6205 12.3225L13.5767 12.2678C13.5643 12.2472 13.5578 12.2318 13.5544 12.2216L13.5431 12.1879L13.5273 12.1562C13.5187 12.139 13.5152 12.1272 13.5138 12.1204C13.5033 12.0464 13.5 12.0161 13.5 11.9994C13.5 11.8809 13.5504 11.7483 13.6407 11.6464C13.7017 11.5934 13.7471 11.5658 13.7996 11.5456L13.8091 11.5419L13.8185 11.5378C13.9945 11.4617 14.2134 11.5036 14.3517 11.6379C14.4467 11.7409 14.5 11.8776 14.5 11.9994C14.5 12.0161 14.4967 12.0464 14.4862 12.1204C14.4848 12.1272 14.4813 12.139 14.4727 12.1562L14.4569 12.1879L14.4456 12.2216C14.4415 12.2341 14.4326 12.2544 14.4139 12.2825L14.4073 12.2924L14.4052 12.296C14.4029 12.2988 14.3991 12.3035 14.3927 12.3111C14.3871 12.3177 14.3824 12.3231 14.3764 12.33C14.3726 12.3344 14.3682 12.3395 14.3627 12.3458C14.358 12.3513 14.3528 12.3574 14.3471 12.364C14.246 12.4514 14.1162 12.5 14 12.5C13.9459 12.5 13.8812 12.4872 13.8124 12.4585Z" fill="white" stroke="#D9D9D9"/>
    <path d="M7.54197 15.8026L7.54214 15.8027L7.54705 15.7898C7.57456 15.7178 7.60843 15.6682 7.64466 15.6317C7.81765 15.4576 8.17466 15.4561 8.35081 15.6272C8.4461 15.7311 8.5 15.8695 8.5 15.9937C8.5 16.116 8.44771 16.2521 8.35509 16.3555C8.25261 16.4485 8.11876 16.5 8 16.5C7.94631 16.5 7.88198 16.4872 7.81334 16.4584C7.75318 16.4332 7.69602 16.3982 7.6411 16.3512C7.55086 16.2484 7.5 16.1143 7.5 15.9937C7.5 15.9383 7.51307 15.8724 7.54197 15.8026Z" fill="white" stroke="#D9D9D9"/>
    <path d="M10.542 15.8026L10.5421 15.8027L10.5471 15.7898C10.5746 15.7178 10.6084 15.6682 10.6447 15.6317C10.8191 15.4561 11.1809 15.4561 11.3553 15.6317C11.3916 15.6682 11.4254 15.7178 11.4529 15.7898L11.4528 15.7899L11.458 15.8026C11.4869 15.8724 11.5 15.9383 11.5 15.9937C11.5 16.116 11.4477 16.2521 11.3551 16.3555C11.2526 16.4485 11.1188 16.5 11 16.5C10.8812 16.5 10.7474 16.4485 10.6449 16.3555C10.5523 16.2521 10.5 16.116 10.5 15.9937C10.5 15.9383 10.5131 15.8724 10.542 15.8026Z" fill="white" stroke="#D9D9D9"/>
    <path d="M13.5466 16.2007L13.5468 16.2007L13.5415 16.1879C13.5128 16.1191 13.5 16.0545 13.5 16.0004C13.5 15.9464 13.5128 15.8818 13.5415 15.813L13.5417 15.8131L13.5466 15.8002C13.5739 15.7293 13.6074 15.6804 13.6435 15.6444C13.7585 15.5294 13.937 15.4774 14.0832 15.5093L14.1011 15.5133L14.1193 15.5158C14.1316 15.5176 14.1403 15.52 14.1565 15.5281L14.1882 15.544L14.222 15.5552C14.2343 15.5593 14.2545 15.5681 14.2827 15.5869L14.2926 15.5935L14.2962 15.5956C14.2991 15.5979 14.3038 15.6017 14.3113 15.6081C14.3179 15.6138 14.3233 15.6184 14.3303 15.6244C14.3347 15.6283 14.3397 15.6326 14.346 15.6381C14.3515 15.6428 14.3576 15.648 14.3642 15.6536C14.4514 15.7546 14.5 15.8844 14.5 16.0004C14.5 16.12 14.4485 16.254 14.3563 16.3562C14.254 16.4484 14.1198 16.5 14 16.5C13.8784 16.5 13.7419 16.4468 13.639 16.3519C13.6047 16.3164 13.5728 16.2686 13.5466 16.2007Z" fill="white" stroke="#D9D9D9"/>
    <path d="M3.48228 8.43537C3.48232 8.43537 3.48274 8.4358 3.48344 8.4367L3.48228 8.43537ZM3.48344 8.5633C3.48274 8.5642 3.48232 8.56463 3.48228 8.56463L3.48344 8.5633ZM19.5177 8.56463C19.5177 8.56463 19.5173 8.56422 19.5166 8.56335L19.5177 8.56463ZM19.5166 8.43665C19.5173 8.43579 19.5177 8.43537 19.5177 8.43537L19.5166 8.43665Z" fill="white" stroke="#D9D9D9"/>
    <path d="M14.6923 20.5H7.30769C5.71455 20.5 4.52723 20.0545 3.73943 19.2864C2.95342 18.52 2.5 17.369 2.5 15.825V8.175C2.5 6.63097 2.95342 5.47999 3.73943 4.71362C4.52723 3.94553 5.71455 3.5 7.30769 3.5H14.6923C16.2855 3.5 17.4728 3.94553 18.2606 4.71362C19.0466 5.47999 19.5 6.63097 19.5 8.175V15.825C19.5 17.369 19.0466 18.52 18.2606 19.2864C17.4728 20.0545 16.2855 20.5 14.6923 20.5ZM7.30769 3.85C5.91727 3.85 4.78684 4.17901 4.0071 4.93925C3.22491 5.70189 2.88462 6.81132 2.88462 8.175V15.825C2.88462 17.1887 3.22491 18.2981 4.0071 19.0607C4.78684 19.821 5.91727 20.15 7.30769 20.15H14.6923C16.0827 20.15 17.2132 19.821 17.9929 19.0607C18.7751 18.2981 19.1154 17.1887 19.1154 15.825V8.175C19.1154 6.81132 18.7751 5.70189 17.9929 4.93925C17.2132 4.17901 16.0827 3.85 14.6923 3.85H7.30769Z" fill="white" stroke="#D9D9D9"/>
</svg>
