<svg xmlns="http://www.w3.org/2000/svg" width="24" height="25" fill="none" viewBox="0 0 24 25"><path fill="#fff" d="M17.6667 3.16669H7.66669C4.90669 3.16669 2.66669 5.3978 2.66669 8.14918V14.1322V15.1327C2.66669 17.884 4.90669 20.1152 7.66669 20.1152H9.16669C9.43669 20.1152 9.79669 20.2952 9.96669 20.5154L11.4667 22.5064C12.1267 23.3868 13.2067 23.3868 13.8667 22.5064L15.3667 20.5154C15.5567 20.2652 15.8567 20.1152 16.1667 20.1152H17.6667C20.4267 20.1152 22.6667 17.884 22.6667 15.1327V8.14918C22.6667 5.3978 20.4267 3.16669 17.6667 3.16669ZM8.66669 13.1717C8.10669 13.1717 7.66669 12.7215 7.66669 12.1712C7.66669 11.6209 8.11669 11.1707 8.66669 11.1707C9.21669 11.1707 9.66669 11.6209 9.66669 12.1712C9.66669 12.7215 9.22669 13.1717 8.66669 13.1717ZM12.6667 13.1717C12.1067 13.1717 11.6667 12.7215 11.6667 12.1712C11.6667 11.6209 12.1167 11.1707 12.6667 11.1707C13.2167 11.1707 13.6667 11.6209 13.6667 12.1712C13.6667 12.7215 13.2267 13.1717 12.6667 13.1717ZM16.6667 13.1717C16.1067 13.1717 15.6667 12.7215 15.6667 12.1712C15.6667 11.6209 16.1167 11.1707 16.6667 11.1707C17.2167 11.1707 17.6667 11.6209 17.6667 12.1712C17.6667 12.7215 17.2267 13.1717 16.6667 13.1717Z"/></svg>