<svg width="18" height="19" viewBox="0 0 18 19" fill="none" xmlns="http://www.w3.org/2000/svg">
<path d="M5.67287 2H4.3411C2.80607 2 2 2.94042 2 4.72313V6.27687C2 8.05958 2.80607 9 4.33409 9H5.66586C7.19389 9 7.99995 8.05958 7.99995 6.27687V4.72313C8.00696 2.94042 7.20089 2 5.67287 2Z" fill="white"/>
<path d="M13.6659 2H12.3341C10.8061 2 10 2.94042 10 4.72313V6.27687C10 8.05958 10.8061 9 12.3341 9H13.6659C15.1939 9 16 8.05958 16 6.27687V4.72313C16 2.94042 15.1939 2 13.6659 2Z" fill="white"/>
<path d="M13.6659 11H12.3341C10.8061 11 10 11.9404 10 13.7231V15.2769C10 17.0596 10.8061 18 12.3341 18H13.6659C15.1939 18 16 17.0596 16 15.2769V13.7231C16 11.9404 15.1939 11 13.6659 11Z" fill="white"/>
<path d="M5.67287 11H4.3411C2.80607 11 2 11.9393 2 13.72V15.2719C2 17.0607 2.80607 18 4.33409 18H5.66586C7.19389 18 7.99995 17.0607 7.99995 15.28V13.7281C8.00696 11.9393 7.20089 11 5.67287 11Z" fill="white"/>
</svg>
