<svg width="24" height="25" viewBox="0 0 24 25" fill="none" xmlns="http://www.w3.org/2000/svg">
<path d="M16.092 3.55879L7.1665 6.52504C1.16675 8.5322 1.16675 11.805 7.1665 13.8022L9.81548 14.6822L10.6952 17.3321C12.6918 23.3338 15.9734 23.3338 17.97 17.3321L20.9452 8.41355C22.2697 4.40912 20.0951 2.22398 16.092 3.55879ZM16.4083 8.87826L12.6523 12.6553C12.504 12.8036 12.3162 12.8728 12.1284 12.8728C11.9406 12.8728 11.7528 12.8036 11.6045 12.6553C11.3179 12.3685 11.3179 11.8939 11.6045 11.6072L15.3606 7.83019C15.6472 7.54345 16.1216 7.54345 16.4083 7.83019C16.6949 8.11693 16.6949 8.59153 16.4083 8.87826Z" fill="white"/>
</svg>
