<svg width="48" height="45" viewBox="0 0 48 45" fill="none" xmlns="http://www.w3.org/2000/svg">
<g filter="url(#filter0_d_1333_6593)">
<path d="M34 10H24C21 10 19 11.5 19 15V22C19 25.5 21 27 24 27H34C37 27 39 25.5 39 22V15C39 11.5 37 10 34 10ZM34.47 16.09L31.34 18.59C30.68 19.12 29.84 19.38 29 19.38C28.16 19.38 27.31 19.12 26.66 18.59L23.53 16.09C23.21 15.83 23.16 15.35 23.41 15.03C23.67 14.71 24.14 14.65 24.46 14.91L27.59 17.41C28.35 18.02 29.64 18.02 30.4 17.41L33.53 14.91C33.85 14.65 34.33 14.7 34.58 15.03C34.84 15.35 34.79 15.83 34.47 16.09Z" fill="white"/>
</g>
<rect x="35" y="20" width="7" height="7" rx="3.5" fill="#E84749"/>
<defs>
<filter id="filter0_d_1333_6593" x="0" y="0" width="48" height="45" filterUnits="userSpaceOnUse" color-interpolation-filters="sRGB">
<feFlood flood-opacity="0" result="BackgroundImageFix"/>
<feColorMatrix in="SourceAlpha" type="matrix" values="0 0 0 0 0 0 0 0 0 0 0 0 0 0 0 0 0 0 127 0" result="hardAlpha"/>
<feOffset dx="-5" dy="4"/>
<feGaussianBlur stdDeviation="7"/>
<feComposite in2="hardAlpha" operator="out"/>
<feColorMatrix type="matrix" values="0 0 0 0 1 0 0 0 0 1 0 0 0 0 1 0 0 0 0.15 0"/>
<feBlend mode="normal" in2="BackgroundImageFix" result="effect1_dropShadow_1333_6593"/>
<feBlend mode="normal" in="SourceGraphic" in2="effect1_dropShadow_1333_6593" result="shape"/>
</filter>
</defs>
</svg>
