<svg xmlns="http://www.w3.org/2000/svg" width="20" height="20" fill="none" viewBox="0 0 20 20"><path fill="#fff" d="M12.5003 18.9584H7.50033C2.97533 18.9584 1.04199 17.025 1.04199 12.5V7.50002C1.04199 2.97502 2.97533 1.04169 7.50033 1.04169H9.16699C9.50866 1.04169 9.79199 1.32502 9.79199 1.66669C9.79199 2.00835 9.50866 2.29169 9.16699 2.29169H7.50033C3.65866 2.29169 2.29199 3.65835 2.29199 7.50002V12.5C2.29199 16.3417 3.65866 17.7084 7.50033 17.7084H12.5003C16.342 17.7084 17.7087 16.3417 17.7087 12.5V10.8334C17.7087 10.4917 17.992 10.2084 18.3337 10.2084C18.6753 10.2084 18.9587 10.4917 18.9587 10.8334V12.5C18.9587 17.025 17.0253 18.9584 12.5003 18.9584Z"/><path fill="#fff" d="M7.08409 14.7417C6.57576 14.7417 6.10909 14.5584 5.76742 14.225C5.35909 13.8167 5.18409 13.225 5.27576 12.6L5.63409 10.0917C5.70076 9.60838 6.01742 8.98338 6.35909 8.64172L12.9258 2.07505C14.5841 0.416716 16.2674 0.416716 17.9258 2.07505C18.8341 2.98338 19.2424 3.90838 19.1591 4.83338C19.0841 5.58338 18.6841 6.31672 17.9258 7.06672L11.3591 13.6334C11.0174 13.975 10.3924 14.2917 9.90909 14.3584L7.40076 14.7167C7.29242 14.7417 7.18409 14.7417 7.08409 14.7417ZM13.8091 2.95838L7.24242 9.52505C7.08409 9.68338 6.90076 10.05 6.86742 10.2667L6.50909 12.775C6.47576 13.0167 6.52576 13.2167 6.65076 13.3417C6.77576 13.4667 6.97576 13.5167 7.21742 13.4834L9.72576 13.125C9.94242 13.0917 10.3174 12.9084 10.4674 12.75L17.0341 6.18338C17.5758 5.64172 17.8591 5.15838 17.9008 4.70838C17.9508 4.16672 17.6674 3.59172 17.0341 2.95005C15.7008 1.61672 14.7841 1.99172 13.8091 2.95838Z"/><path fill="#fff" d="M16.5413 8.19167C16.483 8.19167 16.4246 8.18334 16.3746 8.16667C14.183 7.55 12.4413 5.80834 11.8246 3.61667C11.733 3.28334 11.9246 2.94167 12.258 2.84167C12.5913 2.75 12.933 2.94167 13.0246 3.275C13.5246 5.05 14.933 6.45834 16.708 6.95834C17.0413 7.05 17.233 7.4 17.1413 7.73334C17.0663 8.01667 16.8163 8.19167 16.5413 8.19167Z"/></svg>