<svg xmlns="http://www.w3.org/2000/svg" width="20" height="20" fill="none" viewBox="0 0 20 20"><path fill="#fff" d="M9.09305 19C8.68235 19 8.28021 18.8986 7.90374 18.6958C7.1508 18.2817 6.69733 17.5296 6.69733 16.6845V12.2056C6.69733 11.7831 6.41497 11.1493 6.14973 10.8282L2.94973 7.48169C2.4107 6.9493 2 6.03662 2 5.35211V3.40845C2 2.05634 3.03529 1 4.35294 1H15.6471C16.9476 1 18 2.03944 18 3.32394V5.1831C18 6.07042 17.461 7.07606 16.9561 7.57465L13.2513 10.8113C12.892 11.107 12.6096 11.7577 12.6096 12.2817V15.9155C12.6096 16.6676 12.1305 17.538 11.5316 17.893L10.3508 18.6451C9.96578 18.8817 9.52941 19 9.09305 19ZM4.35294 2.26761C3.75401 2.26761 3.28342 2.7662 3.28342 3.40845V5.35211C3.28342 5.66479 3.54011 6.27324 3.86524 6.59437L7.12513 9.9831C7.5615 10.5155 7.9893 11.4028 7.9893 12.1972V16.6761C7.9893 17.2254 8.37433 17.4958 8.5369 17.5803C8.89626 17.7746 9.33262 17.7746 9.66631 17.5718L10.8556 16.8197C11.0952 16.6761 11.3348 16.2197 11.3348 15.9155V12.2817C11.3348 11.3775 11.7797 10.3803 12.4214 9.84789L16.0834 6.64507C16.3743 6.35775 16.7251 5.67324 16.7251 5.17465V3.32394C16.7251 2.74085 16.246 2.26761 15.6556 2.26761H4.35294Z"/><path fill="#fff" d="M4.58625 9C4.47734 9 4.3762 8.96597 4.27507 8.90642C4.00279 8.71926 3.91721 8.31941 4.08836 8.02165L7.92364 1.30081C8.09479 1.00305 8.45265 0.909467 8.72493 1.09663C8.99721 1.28379 9.08279 1.67513 8.91164 1.97289L5.07636 8.69373C4.96744 8.8894 4.78074 9 4.58625 9Z"/></svg>