<svg xmlns="http://www.w3.org/2000/svg" width="22" height="22" fill="none" viewBox="0 0 22 22"><path fill="#D9D9D9" stroke="#D9D9D9" d="M3.21248 6.31636L3.21283 6.31608L8.15331 2.46636C8.15341 2.46628 8.15352 2.4662 8.15362 2.46612C8.15364 2.46611 8.15365 2.4661 8.15367 2.46608C9.46477 1.44663 11.5975 1.39683 12.9581 2.35251L12.9586 2.35284L18.6236 6.32201L18.6245 6.32262C19.089 6.6466 19.5264 7.17577 19.848 7.79169C20.1697 8.40763 20.3538 9.06852 20.3538 9.63418V16.3075C20.3538 18.5345 18.542 20.3542 16.3072 20.3542H5.69217C3.45796 20.3542 1.64551 18.5352 1.64551 16.2984V9.50585C1.64551 8.97705 1.81147 8.34915 2.10306 7.75542C2.39456 7.16185 2.7912 6.64402 3.21248 6.31636ZM3.44152 6.60895L3.44151 6.60894L3.4392 6.61077C3.03712 6.9279 2.68871 7.41601 2.44206 7.91681C2.19572 8.41699 2.02051 8.99156 2.02051 9.50585V16.2984C2.02051 18.3234 3.66332 19.9792 5.69217 19.9792H16.3072C18.3342 19.9792 19.9788 18.3345 19.9788 16.3075V9.63418C19.9788 9.08882 19.7878 8.48367 19.5154 7.96148C19.2437 7.44074 18.8575 6.93794 18.4069 6.629L12.7444 2.66157C12.1176 2.22169 11.3151 2.02832 10.5454 2.04503C9.77596 2.06173 8.98434 2.28957 8.38235 2.75895C8.3823 2.75899 8.38225 2.75903 8.3822 2.75906L3.44152 6.60895Z"/><path fill="#D9D9D9" stroke="#D9D9D9" d="M11 16.6875C10.9003 16.6875 10.8125 16.5997 10.8125 16.5V13.75C10.8125 13.6503 10.9003 13.5625 11 13.5625C11.0997 13.5625 11.1875 13.6503 11.1875 13.75V16.5C11.1875 16.5997 11.0997 16.6875 11 16.6875Z"/></svg>