<svg width="22" height="22" viewBox="0 0 22 22" fill="none" xmlns="http://www.w3.org/2000/svg">
<path d="M18.2288 6.33646L13.0499 2.70905C11.6384 1.71893 9.47153 1.77294 8.11389 2.82606L3.60939 6.34546C2.71029 7.04754 2 8.4877 2 9.62183V15.8325C2 18.1278 3.86114 20 6.15385 20H15.8462C18.1389 20 20 18.1368 20 15.8415V9.73884C20 8.5237 19.2178 7.02953 18.2288 6.33646ZM11.6743 16.3996C11.6743 16.7686 11.3686 17.0747 11 17.0747C10.6314 17.0747 10.3257 16.7686 10.3257 16.3996V13.6993C10.3257 13.3302 10.6314 13.0242 11 13.0242C11.3686 13.0242 11.6743 13.3302 11.6743 13.6993V16.3996Z" fill="white"/>
</svg>
