<svg xmlns="http://www.w3.org/2000/svg" width="18" height="18" fill="none" viewBox="0 0 18 18"><path fill="#D9D9D9" d="M9 17C4.58698 17 1 13.413 1 9C1 4.58698 4.58698 1 9 1C13.413 1 17 4.58698 17 9C17 13.413 13.413 17 9 17ZM9 2.11628C5.20465 2.11628 2.11628 5.20465 2.11628 9C2.11628 12.7953 5.20465 15.8837 9 15.8837C12.7953 15.8837 15.8837 12.7953 15.8837 9C15.8837 5.20465 12.7953 2.11628 9 2.11628Z"/><path fill="#D9D9D9" d="M8.5 10C8.22667 10 8 9.73846 8 9.42308V5.57692C8 5.26154 8.22667 5 8.5 5C8.77333 5 9 5.26154 9 5.57692V9.42308C9 9.73846 8.77333 10 8.5 10Z"/><path fill="#D9D9D9" d="M8.5 12C8.435 12 8.37 11.985 8.31 11.9599C8.25 11.9348 8.195 11.8997 8.145 11.8546C8.1 11.8045 8.065 11.7544 8.04 11.6892C8.015 11.6291 8 11.5639 8 11.4987C8 11.4336 8.015 11.3684 8.04 11.3083C8.065 11.2481 8.1 11.193 8.145 11.1429C8.195 11.0977 8.25 11.0627 8.31 11.0376C8.43 10.9875 8.57 10.9875 8.69 11.0376C8.75 11.0627 8.805 11.0977 8.855 11.1429C8.9 11.193 8.935 11.2481 8.96 11.3083C8.985 11.3684 9 11.4336 9 11.4987C9 11.5639 8.985 11.6291 8.96 11.6892C8.935 11.7544 8.9 11.8045 8.855 11.8546C8.805 11.8997 8.75 11.9348 8.69 11.9599C8.63 11.985 8.565 12 8.5 12Z"/></svg>