<svg width="18" height="18" viewBox="0 0 18 18" fill="none" xmlns="http://www.w3.org/2000/svg">
<path d="M9.5 2C5.3675 2 2 5.3675 2 9.5C2 13.6325 5.3675 17 9.5 17C13.6325 17 17 13.6325 17 9.5C17 5.3675 13.6325 2 9.5 2ZM8.9375 6.5C8.9375 6.1925 9.1925 5.9375 9.5 5.9375C9.8075 5.9375 10.0625 6.1925 10.0625 6.5V10.25C10.0625 10.5575 9.8075 10.8125 9.5 10.8125C9.1925 10.8125 8.9375 10.5575 8.9375 10.25V6.5ZM10.19 12.785C10.1525 12.8825 10.1 12.9575 10.0325 13.0325C9.9575 13.1 9.875 13.1525 9.785 13.19C9.695 13.2275 9.5975 13.25 9.5 13.25C9.4025 13.25 9.305 13.2275 9.215 13.19C9.125 13.1525 9.0425 13.1 8.9675 13.0325C8.9 12.9575 8.8475 12.8825 8.81 12.785C8.7725 12.695 8.75 12.5975 8.75 12.5C8.75 12.4025 8.7725 12.305 8.81 12.215C8.8475 12.125 8.9 12.0425 8.9675 11.9675C9.0425 11.9 9.125 11.8475 9.215 11.81C9.395 11.735 9.605 11.735 9.785 11.81C9.875 11.8475 9.9575 11.9 10.0325 11.9675C10.1 12.0425 10.1525 12.125 10.19 12.215C10.2275 12.305 10.25 12.4025 10.25 12.5C10.25 12.5975 10.2275 12.695 10.19 12.785Z" fill="white"/>
</svg>
