<svg width="24" height="24" viewBox="0 0 24 24" fill="none" xmlns="http://www.w3.org/2000/svg">
<path d="M12 21C11.6828 21 11.3758 20.9606 11.12 20.872C7.21116 19.5824 1 15.0047 1 8.24145C1 4.79585 3.89581 2 7.45674 2C9.18605 2 10.8028 2.64974 12 3.8114C13.1972 2.64974 14.814 2 16.5433 2C20.1042 2 23 4.8057 23 8.24145C23 15.0145 16.7888 19.5824 12.88 20.872C12.6242 20.9606 12.3172 21 12 21ZM7.45674 3.47668C4.74512 3.47668 2.53488 5.61295 2.53488 8.24145C2.53488 14.9653 9.25767 18.7062 11.6214 19.4839C11.8056 19.543 12.2047 19.543 12.3888 19.4839C14.7423 18.7062 21.4753 14.9751 21.4753 8.24145C21.4753 5.61295 19.2651 3.47668 16.5535 3.47668C14.9981 3.47668 13.5553 4.17565 12.6242 5.38653C12.3377 5.76062 11.6828 5.76062 11.3963 5.38653C10.4447 4.1658 9.01209 3.47668 7.45674 3.47668Z" fill="white"/>
</svg>
