<svg xmlns="http://www.w3.org/2000/svg" width="22" height="22" fill="none" viewBox="0 0 22 22"><path fill="#D9D9D9" stroke="#D9D9D9" d="M13.4518 12.4798L13.0982 12.8334L13.4518 13.1869L18.2734 18.0086L18.71 18.4452L19.0463 17.9274C19.7008 16.9197 19.9795 15.5403 19.9795 13.75V8.25003C19.9795 7.8669 19.9702 7.50343 19.9411 7.15434L19.8515 6.08001L19.0893 6.84231L13.4518 12.4798ZM18.6381 18.8639C18.6052 18.8559 18.5746 18.8388 18.5497 18.814L12.7014 12.9656C12.6308 12.8951 12.6308 12.7717 12.7014 12.7011L19.7872 5.61525C19.8259 5.57654 19.9001 5.55175 19.9735 5.56823C20.0426 5.59262 20.088 5.64762 20.1012 5.70301C20.2658 6.44017 20.3545 7.27309 20.3545 8.25003V13.75C20.3545 16.2235 19.8367 17.7793 18.819 18.8092C18.8144 18.8117 18.8024 18.8176 18.7786 18.8256C18.7547 18.8337 18.726 18.8417 18.6859 18.8519C18.6774 18.8541 18.6675 18.8565 18.6567 18.8592C18.6508 18.8607 18.6445 18.8623 18.6381 18.8639Z"/><path fill="#D9D9D9" stroke="#D9D9D9" d="M20.1007 5.70354L20.1007 5.70355L20.1018 5.70834C20.1151 5.76388 20.0964 5.83447 20.0511 5.87976L5.87944 20.0514C5.84381 20.0871 5.79638 20.1066 5.74716 20.1066C5.74834 20.1066 5.74658 20.1068 5.73677 20.1055C5.73402 20.1051 5.73087 20.1047 5.72706 20.1041C5.72324 20.1035 5.71876 20.1027 5.71334 20.1018L5.69549 20.0988L5.68927 20.0978C4.28177 19.7718 3.29667 19.1189 2.64983 18.1238C1.99068 17.1098 1.64551 15.6834 1.64551 13.75V8.24998C1.64551 5.81862 2.16686 4.20261 3.18458 3.18489C4.20231 2.16716 5.81832 1.64581 8.24967 1.64581H13.7497C15.6831 1.64581 17.1095 1.99099 18.1235 2.65013C19.1219 3.29911 19.7758 4.28859 20.1007 5.70354ZM8.74967 2.02997V2.02081H8.24967C6.10148 2.02081 4.49629 2.39772 3.44685 3.44716C2.39741 4.49659 2.02051 6.10179 2.02051 8.24998V13.75C2.02051 15.375 2.24316 16.6688 2.79055 17.6528C3.35135 18.6609 4.22268 19.2907 5.39437 19.6377L5.67958 19.7222L5.8899 19.5119L19.5024 5.89937L19.7118 5.68999L19.6288 5.40574C19.2864 4.23246 18.656 3.36068 17.6466 2.79988C16.6615 2.25262 15.3655 2.02997 13.7405 2.02997H8.74967Z"/><path fill="#D9D9D9" stroke="#D9D9D9" d="M19.1678 19.1675L18.8157 18.8126C17.7858 19.8343 16.2287 20.3542 13.7503 20.3542H8.25034C7.26894 20.3542 6.44696 20.2738 5.70527 20.1013L5.70528 20.1013L5.70048 20.1003C5.63097 20.0848 5.58543 20.0366 5.57064 19.9817L5.56833 19.9731L5.56572 19.9646C5.55198 19.92 5.55914 19.8487 5.62118 19.7813L12.7014 12.7011C12.772 12.6305 12.8954 12.6305 12.966 12.7011L18.8143 18.5494C18.8499 18.585 18.8695 18.6325 18.8695 18.6817C18.8695 18.7309 18.8499 18.7783 18.8143 18.814L19.1678 19.1675ZM19.1678 19.1675C19.2962 19.0392 19.3695 18.865 19.3695 18.6817C19.3695 18.4983 19.2962 18.3242 19.1678 18.1958L13.3195 12.3475C13.0537 12.0817 12.6137 12.0817 12.3478 12.3475L5.262 19.4333L5.08783 20.1117C5.152 20.35 5.34452 20.5333 5.59202 20.5883C6.38035 20.7717 7.24201 20.8542 8.25034 20.8542H13.7503C16.2895 20.8542 18.0037 20.3225 19.1678 19.1675ZM6.84263 19.089L6.08033 19.8513L7.15466 19.9408C7.50376 19.9699 7.86723 19.9792 8.25034 19.9792H13.7503C15.5501 19.9792 16.9202 19.7003 17.9277 19.046L18.4455 18.7097L18.0089 18.2731L13.1872 13.4515L12.8337 13.0979L12.4801 13.4515L6.84263 19.089Z"/><path fill="#D9D9D9" stroke="#D9D9D9" d="M5.53767 7.28253L5.53827 7.27991C5.83152 5.99887 6.94755 5.12 8.36003 5.12C9.77233 5.12 10.8883 5.99864 11.1817 7.27941C11.4695 8.54796 10.9949 9.89034 9.62098 11.1956C9.26506 11.5292 8.81051 11.7008 8.36003 11.7008C7.90572 11.7008 7.45232 11.5358 7.09005 11.1957C5.7157 9.89009 5.24271 8.53995 5.53767 7.28253ZM7.35531 10.9222L7.35542 10.9223C7.92108 11.4604 8.80337 11.4671 9.3667 10.9203C10.131 10.1927 11.1666 8.8989 10.8185 7.36048L10.8185 7.3602C10.5007 5.95981 9.24943 5.48583 8.36003 5.48583C7.46669 5.48583 6.23053 5.96213 5.90249 7.35631C5.54151 8.8905 6.58387 10.1879 7.35531 10.9222Z"/><path fill="#D9D9D9" stroke="#D9D9D9" d="M8.38737 8.19918C8.15935 8.19918 7.9707 8.01054 7.9707 7.78251C7.9707 7.55122 8.15344 7.36584 8.38737 7.36584H8.39655C8.62457 7.36584 8.81321 7.55449 8.81321 7.78251C8.81321 8.00409 8.62188 8.19918 8.38737 8.19918Z"/></svg>