<svg width="22" height="22" viewBox="0 0 22 22" fill="none" xmlns="http://www.w3.org/2000/svg">
<path d="M8 7C7.44 7 7 7.45 7 8C7 8.55 7.45 9 8 9C8.55 9 9 8.55 9 8C9 7.45 8.55 7 8 7Z" fill="white"/>
<path d="M19.9586 4.80642C19.1834 3.00625 17.4762 2 15.0952 2H7.36175C4.39941 2 2 4.40022 2 7.36358V15.0997C2 17.4814 3.00591 19.1893 4.80546 19.9648C4.9808 20.0386 5.18383 19.9925 5.31303 19.8632L19.8571 5.31416C19.9956 5.17568 20.0417 4.97259 19.9586 4.80642ZM9.8719 11.4532C9.51199 11.804 9.04134 11.9702 8.57068 11.9702C8.10003 11.9702 7.62938 11.7948 7.26947 11.4532C6.32816 10.567 5.29457 9.15451 5.69139 7.47436C6.04208 5.95114 7.38944 5.268 8.57068 5.268C9.75193 5.268 11.0993 5.95114 11.45 7.48359C11.8376 9.15451 10.804 10.567 9.8719 11.4532Z" fill="white"/>
<path d="M17.8674 18.6895C18.0671 18.8856 18.0399 19.2065 17.7947 19.3403C16.9957 19.7771 16.0242 20 14.8892 20H7.28049C7.01718 20 6.90822 19.6969 7.08982 19.5186L12.5739 14.1337C12.7555 13.9554 13.037 13.9554 13.2186 14.1337L17.8674 18.6895Z" fill="white"/>
<path d="M20 7.28058V14.8919C20 16.0273 19.7774 17.0082 19.3412 17.7984C19.2077 18.0436 18.8872 18.0618 18.6914 17.8711L14.1335 13.2207C13.9555 13.039 13.9555 12.7575 14.1335 12.5758L19.5104 7.08985C19.6973 6.90819 20 7.01718 20 7.28058Z" fill="white"/>
</svg>
