<svg width="22" height="22" viewBox="0 0 22 22" fill="none" xmlns="http://www.w3.org/2000/svg">
<path d="M13.7487 20.8541H8.2487C3.2712 20.8541 1.14453 18.7274 1.14453 13.7499V8.24992C1.14453 3.27242 3.2712 1.14575 8.2487 1.14575H13.7487C18.7262 1.14575 20.8529 3.27242 20.8529 8.24992V13.7499C20.8529 18.7274 18.7262 20.8541 13.7487 20.8541ZM8.2487 2.52075C4.02286 2.52075 2.51953 4.02409 2.51953 8.24992V13.7499C2.51953 17.9758 4.02286 19.4791 8.2487 19.4791H13.7487C17.9745 19.4791 19.4779 17.9758 19.4779 13.7499V8.24992C19.4779 4.02409 17.9745 2.52075 13.7487 2.52075H8.2487Z" fill="white"/>
<path d="M10.9987 11.9166C10.4854 11.9166 10.082 11.5041 10.082 10.9999C10.082 10.4958 10.4945 10.0833 10.9987 10.0833C11.5029 10.0833 11.9154 10.4958 11.9154 10.9999C11.9154 11.5041 11.512 11.9166 10.9987 11.9166Z" fill="white"/>
<path d="M14.6667 11.9166C14.1533 11.9166 13.75 11.5041 13.75 10.9999C13.75 10.4958 14.1625 10.0833 14.6667 10.0833C15.1708 10.0833 15.5833 10.4958 15.5833 10.9999C15.5833 11.5041 15.18 11.9166 14.6667 11.9166Z" fill="white"/>
<path d="M7.33464 11.9166C6.8213 11.9166 6.41797 11.5041 6.41797 10.9999C6.41797 10.4958 6.83047 10.0833 7.33464 10.0833C7.8388 10.0833 8.2513 10.4958 8.2513 10.9999C8.2513 11.5041 7.84797 11.9166 7.33464 11.9166Z" fill="white"/>
</svg>
