<svg xmlns="http://www.w3.org/2000/svg" width="24" height="24" fill="none" viewBox="0 0 24 24"><path fill="#fff" d="M4.18012 19.08C3.99012 19.08 3.80012 19.01 3.65012 18.86C3.36012 18.57 3.36012 18.09 3.65012 17.8L19.5001 1.94998C19.7901 1.65998 20.2701 1.65998 20.5601 1.94998C20.8501 2.23998 20.8501 2.71998 20.5601 3.00998L4.71012 18.86C4.56012 19.01 4.37012 19.08 4.18012 19.08Z"/><path fill="#fff" d="M5.25031 13.75C4.96031 13.75 4.69031 13.58 4.56031 13.3C4.07031 12.18 3.82031 11.04 3.82031 9.90001C3.82031 7.18001 5.00031 4.67001 7.05031 3.01001C8.97031 1.47001 11.3503 0.910008 13.7503 1.44001C15.3303 1.79001 16.7703 2.62001 17.9003 3.84001C18.1803 4.14001 18.1603 4.62001 17.8603 4.90001C17.5603 5.18001 17.0803 5.16001 16.8003 4.86001C15.8703 3.86001 14.7103 3.18001 13.4303 2.90001C11.4803 2.48001 9.55031 2.93001 8.00031 4.18001C6.30031 5.55001 5.33031 7.63001 5.33031 9.90001C5.33031 10.83 5.54031 11.77 5.94031 12.7C6.11031 13.08 5.93031 13.52 5.55031 13.69C5.45031 13.73 5.35031 13.75 5.25031 13.75Z"/><path fill="#fff" d="M14.6096 19.75H9.41961C9.02961 19.75 8.47961 19.71 8.10961 19.33C7.74961 18.96 7.75961 18.49 7.76961 18.18V17.27C7.36961 16.99 6.98961 16.67 6.62961 16.31C6.33961 16.02 6.33961 15.54 6.62961 15.25C6.91961 14.96 7.39961 14.96 7.68961 15.25C8.07961 15.63 8.48961 15.97 8.91961 16.25C9.12961 16.39 9.26961 16.63 9.26961 16.88V18.22C9.26961 18.23 9.26961 18.24 9.26961 18.25C9.30961 18.25 9.35961 18.25 9.42961 18.25H14.6196C14.6896 18.25 14.7396 18.25 14.7796 18.24C14.7796 18.2 14.7796 18.16 14.7796 18.13V16.87C14.7796 16.61 14.9096 16.38 15.1296 16.24C17.5996 14.66 19.4996 11.16 18.3596 7.53001C18.2396 7.13001 18.4596 6.71001 18.8496 6.59001C19.2396 6.46001 19.6696 6.69001 19.7896 7.08001C21.0996 11.26 19.0596 15.29 16.2796 17.27V18.04C16.2896 18.35 16.2996 18.88 15.8896 19.3C15.5796 19.6 15.1596 19.75 14.6096 19.75Z"/><path fill="#fff" d="M15.5003 22.75C15.4303 22.75 15.3603 22.74 15.2903 22.72C13.1303 22.1 10.8603 22.1 8.70025 22.72C8.30025 22.83 7.89025 22.6 7.77025 22.2C7.65025 21.8 7.89025 21.39 8.29025 21.27C10.7103 20.58 13.2803 20.58 15.7003 21.27C16.1003 21.38 16.3303 21.8 16.2203 22.2C16.1303 22.54 15.8303 22.75 15.5003 22.75Z"/></svg>