<svg xmlns="http://www.w3.org/2000/svg" width="18" height="18" fill="none" viewBox="0 0 18 18"><path fill="#fff" d="M13.3678 12.8612L13.6586 15.1756C13.7332 15.7834 13.0695 16.2082 12.5401 15.8933L9.96007 14.3846C9.78111 14.2821 9.73637 14.0623 9.83331 13.8866C10.2061 13.2128 10.4075 12.4511 10.4075 11.6894C10.4075 9.0089 8.06607 6.8264 5.18778 6.8264C4.5987 6.8264 4.02453 6.91429 3.48765 7.09006C3.21175 7.17795 2.94331 6.92894 3.01042 6.65063C3.68898 3.98476 6.29883 2 9.41573 2C13.0546 2 16 4.70249 16 8.03483C16 10.0123 14.9635 11.7627 13.3678 12.8612Z"/><path fill="#fff" d="M10 11.8839C10 12.783 9.68 13.6142 9.14182 14.2716C8.42182 15.1783 7.28 15.7602 6 15.7602L4.10182 16.9314C3.78182 17.1354 3.37455 16.8558 3.41818 16.4704L3.6 14.9819C2.62545 14.2792 2 13.1533 2 11.8839C2 10.554 2.68364 9.38278 3.73091 8.68761C4.37818 8.24935 5.15636 8 6 8C8.21091 8 10 9.73792 10 11.8839Z"/></svg>