<svg width="20" height="20" viewBox="0 0 20 20" fill="none" xmlns="http://www.w3.org/2000/svg">
<path d="M9 17C4.58564 17 1 13.4144 1 9C1 4.58564 4.58564 1 9 1C13.4144 1 17 4.58564 17 9C17 13.4144 13.4144 17 9 17ZM9 2.23077C5.26667 2.23077 2.23077 5.26667 2.23077 9C2.23077 12.7333 5.26667 15.7692 9 15.7692C12.7333 15.7692 15.7692 12.7333 15.7692 9C15.7692 5.26667 12.7333 2.23077 9 2.23077Z" fill="white"/>
<path d="M16.8579 19C16.7893 19 16.7208 18.9916 16.6609 18.9833C16.2583 18.9332 15.5301 18.666 15.119 17.4718C14.9048 16.8455 14.9819 16.2192 15.3331 15.7432C15.6843 15.2672 16.2754 15 16.9521 15C17.8258 15 18.5111 15.3257 18.8195 15.9019C19.1279 16.4781 19.0422 17.2129 18.554 17.9228C17.9458 18.8163 17.2862 19 16.8579 19ZM16.3439 17.0793C16.4895 17.5136 16.6951 17.7307 16.8322 17.7474C16.9692 17.7641 17.2262 17.6054 17.4918 17.2296C17.7402 16.8706 17.7573 16.6117 17.6974 16.4948C17.6374 16.3779 17.3975 16.2526 16.9521 16.2526C16.6866 16.2526 16.4895 16.3361 16.3782 16.4781C16.2754 16.62 16.2583 16.8372 16.3439 17.0793Z" fill="white"/>
</svg>
