<svg width="22" height="22" viewBox="0 0 22 22" fill="none" xmlns="http://www.w3.org/2000/svg">
<path d="M10.5 19C15.1944 19 19 15.1944 19 10.5C19 5.80558 15.1944 2 10.5 2C5.80558 2 2 5.80558 2 10.5C2 15.1944 5.80558 19 10.5 19Z" fill="white"/>
<path d="M19.8253 17.8879C19.5091 17.3178 18.8383 17 17.9376 17C17.2572 17 16.6727 17.271 16.3277 17.7383C15.9828 18.2056 15.9061 18.8318 16.1169 19.4579C16.529 20.6729 17.2476 20.9439 17.6405 20.9907C17.698 21 17.7555 21 17.8226 21C18.2442 21 18.8958 20.8224 19.5282 19.8972C20.0361 19.1776 20.1319 18.4579 19.8253 17.8879Z" fill="white"/>
</svg>
