<svg xmlns="http://www.w3.org/2000/svg" width="18" height="18" fill="none" viewBox="0 0 18 18"><path fill="#fff" d="M16.2371 2.76281C15.5844 2.11021 14.6616 1.85517 13.7688 2.08021L6.41655 3.91799C5.17867 4.22554 4.22588 5.18569 3.91829 6.41587L2.08022 13.7745C1.85515 14.6671 2.11023 15.5898 2.76293 16.2424C3.25808 16.73 3.91078 17 4.58599 17C4.79606 17 5.01362 16.9775 5.22369 16.9175L12.5834 15.0797C13.8138 14.7722 14.7741 13.8195 15.0817 12.5818L16.9198 5.22319C17.1448 4.33056 16.8898 3.40791 16.2371 2.76281ZM9.5 12.4093C7.89451 12.4093 6.58911 11.1041 6.58911 9.49885C6.58911 7.8936 7.89451 6.5884 9.5 6.5884C11.1055 6.5884 12.4109 7.8936 12.4109 9.49885C12.4109 11.1041 11.1055 12.4093 9.5 12.4093Z"/></svg>