<svg xmlns="http://www.w3.org/2000/svg" width="39" height="13" fill="none" viewBox="0 0 39 13"><path fill="#fff" d="M27.9686 1.24979C27.1013 0.933756 26.1845 0.775166 25.2614 0.781493C22.2762 0.781493 20.1679 2.28528 20.153 4.44394C20.1344 6.02982 21.6512 6.92351 22.7986 7.45338C23.9759 7.99818 24.3696 8.34147 24.3659 8.82843C24.3584 9.56913 23.4255 9.90496 22.558 9.90496C21.3657 9.90496 20.7146 9.73891 19.7127 9.32285L19.3414 9.14934L18.9179 11.6345C19.6437 11.9368 20.9516 12.1961 22.3023 12.2185C25.476 12.2185 27.5507 10.724 27.5749 8.4273C27.6011 7.16046 26.7801 6.20333 25.0525 5.41226C24.002 4.89918 23.3509 4.55589 23.3509 4.03534C23.3509 3.57451 23.9088 3.08195 25.0748 3.08195C25.8509 3.06317 26.6222 3.20878 27.338 3.50921L27.6178 3.63421L28.0414 1.233L27.9686 1.24979ZM35.7152 0.982993H33.383C32.6572 0.982993 32.1106 1.18263 31.7934 1.9028L27.3081 12.0636H30.4818L31.1161 10.3975L34.9894 10.4013C35.0808 10.7912 35.3607 12.0636 35.3607 12.0636H38.1593L35.7152 0.982993ZM15.8599 0.889705H18.8843L16.9925 11.9759H13.9718L15.8599 0.885974V0.889705ZM8.18242 7.00001L8.49587 8.53924L11.4512 0.982993H14.6547L9.89517 12.0487H6.69916L4.08712 2.67895C4.04482 2.52445 3.94546 2.39176 3.80913 2.30767C2.86768 1.82134 1.87015 1.45228 0.838867 1.20875L0.879913 0.975529H5.74763C6.4081 1.00165 6.93984 1.20875 7.11708 1.914L8.18056 7.0056V7.00001H8.18242ZM31.9837 8.13064L33.1889 5.02978C33.174 5.06337 33.4371 4.38983 33.5901 3.97377L33.7972 4.9309L34.4968 8.12878H31.9818V8.13064H31.9837Z"/></svg>